<svg version="1.1" id="Layer_1" xmlns="http://www.w3.org/2000/svg" xmlns:xlink="http://www.w3.org/1999/xlink" x="0px" y="0px"
	 width="100%" viewBox="0 0 1024 1024" enable-background="new 0 0 1024 1024" xml:space="preserve">
<path fill="#000000" opacity="1.000000" stroke="none" 
	d="
M517.000122,271.670959 
	C545.997498,271.675690 574.495178,271.737976 602.992004,271.619598 
	C606.934204,271.603241 609.782349,272.696899 612.630554,275.574005 
	C643.226990,306.481445 673.903320,337.310944 704.755676,367.962585 
	C709.451782,372.628174 711.513306,377.371338 711.498352,384.145172 
	C711.279907,483.468933 711.349915,582.793335 711.346558,682.117615 
	C711.345947,702.048767 697.392395,716.316528 677.585632,716.327515 
	C584.594299,716.379272 491.601044,716.040100 398.613251,716.614197 
	C379.383057,716.732849 361.570801,702.925537 361.659058,679.059143 
	C361.833527,631.897400 361.709137,584.734680 361.709808,537.572327 
	C361.710724,475.078094 361.711090,412.583893 361.717712,350.089661 
	C361.718414,343.372284 363.448212,340.749969 368.516998,339.569305 
	C372.229828,338.704437 374.356415,339.777283 374.305878,343.949890 
	C374.231232,350.115234 374.250031,356.281830 374.249969,362.447906 
	C374.249298,466.938263 374.248962,571.428650 374.267944,675.919006 
	C374.268494,678.912476 374.136475,681.967102 374.654785,684.888794 
	C376.859039,697.313477 385.540375,704.697693 398.409882,704.721558 
	C468.568207,704.851685 538.726746,704.868286 608.885254,704.907837 
	C630.715820,704.920105 652.548157,705.045593 674.376465,704.814148 
	C691.148743,704.636414 699.649658,695.670593 699.650208,678.819397 
	C699.653381,583.661438 699.652161,488.503479 699.650146,393.345520 
	C699.649963,385.282104 699.642639,385.277985 691.367920,385.278503 
	C670.869812,385.279785 650.371582,385.320801 629.873535,385.278870 
	C609.995667,385.238251 597.813843,373.123657 597.729675,353.179626 
	C597.641724,332.348663 597.743591,311.516907 597.741333,290.685516 
	C597.740540,283.701874 597.464783,283.372192 590.352539,283.369476 
	C537.357422,283.349213 484.357452,282.947723 431.369324,283.558014 
	C407.164734,283.836761 385.212494,292.715179 365.022827,305.880371 
	C360.138763,309.065094 355.337799,312.377228 350.458038,315.568695 
	C347.226166,317.682404 343.774353,319.295410 339.855164,319.682648 
	C335.819000,320.081390 334.306610,318.069244 335.809937,314.271729 
	C336.640472,312.173645 338.250641,310.715240 339.941132,309.350739 
	C362.044922,291.509583 386.484894,278.467163 414.665192,273.219635 
	C419.389984,272.339813 424.151947,271.649261 429.011780,271.658356 
	C458.174438,271.712982 487.337280,271.676971 517.000122,271.670959 
M679.545288,359.955292 
	C658.524597,338.851898 637.518738,317.733551 616.452515,296.675720 
	C614.905701,295.129486 613.396240,292.414764 610.714966,293.740845 
	C608.383606,294.893860 609.393372,297.639282 609.386047,299.694366 
	C609.323059,317.504120 609.280212,335.314545 609.378357,353.123962 
	C609.441101,364.503845 616.608093,373.096466 627.803101,373.449951 
	C646.925415,374.053711 666.080139,373.699524 685.220520,373.600525 
	C688.937256,373.581299 689.976013,371.276764 687.628235,368.392242 
	C685.325684,365.563232 682.593506,363.083893 679.545288,359.955292 
z"/>
<path fill="#000000" opacity="1.000000" stroke="none" 
	d="
M302.826599,322.163727 
	C302.004883,325.592041 301.134216,328.642639 301.320190,331.859039 
	C301.525085,335.402496 299.505615,337.809937 296.979156,339.871490 
	C295.178436,341.340820 293.014221,341.762787 290.849304,341.032806 
	C288.397125,340.205933 288.685822,337.896057 288.707031,335.948425 
	C288.782715,328.990387 287.980835,321.970795 290.595581,315.208191 
	C293.612030,307.406647 298.929138,303.522858 306.811981,303.681091 
	C314.537292,303.836151 320.856384,308.527008 323.303955,315.909424 
	C324.817505,320.474518 325.074310,325.298248 325.883545,329.806793 
	C327.952454,330.950409 329.459381,329.837067 330.903992,329.247314 
	C348.401215,322.104279 366.538452,316.895142 385.265991,315.057953 
	C410.949463,312.538300 435.733246,316.551636 458.475983,329.698914 
	C463.324341,332.501648 464.468384,335.272858 462.276276,338.845276 
	C459.681335,343.074219 456.167938,342.157806 452.738800,340.188446 
	C433.825439,329.326752 413.278168,325.456726 391.776733,326.425262 
	C373.316376,327.256775 355.822510,332.798828 338.520630,338.816895 
	C323.347290,344.094666 325.806000,342.510651 325.273407,357.196747 
	C324.376068,381.939972 323.095428,406.665649 321.577454,431.384979 
	C320.640137,446.648407 320.110840,461.956177 319.420746,477.245270 
	C316.693451,537.669739 316.995880,598.140381 317.498016,658.598572 
	C317.632050,674.739563 318.336517,690.891663 318.322327,707.047180 
	C318.320709,708.863892 318.303772,710.748657 317.841370,712.481079 
	C317.121277,715.178894 315.069702,716.646301 312.289795,716.674500 
	C309.692413,716.700928 308.493591,714.781982 307.863525,712.610657 
	C307.311279,710.707458 306.760132,708.712463 306.756866,706.757141 
	C306.741882,697.759949 306.196503,688.791260 305.815247,679.808533 
	C305.137634,663.846008 305.201111,647.853027 304.613037,631.885376 
	C303.400482,598.960083 302.055359,566.039001 300.580688,533.124451 
	C299.799744,515.694214 298.907837,498.260223 297.574829,480.865570 
	C295.618500,455.337616 294.010132,429.792816 292.555939,404.233124 
	C291.876648,392.293701 290.624542,380.385895 289.568146,368.469421 
	C289.021637,362.304260 287.505432,361.314636 281.475586,363.279144 
	C268.469025,367.516693 255.184692,368.837463 241.612213,367.261292 
	C239.970840,367.070679 238.332123,366.681061 236.749374,366.196686 
	C233.087723,365.076202 230.953186,362.659973 231.851288,358.727295 
	C232.716187,354.940063 235.563461,354.899078 238.932892,355.298737 
	C260.441406,357.849945 280.576660,353.268158 299.578247,343.157135 
	C300.166382,342.844208 300.748505,342.519989 301.334442,342.202942 
	C312.582581,336.116364 312.578888,336.117035 310.624847,323.671387 
	C310.303101,321.622192 309.746490,319.559845 307.595520,318.888336 
	C305.165558,318.129761 304.059204,320.090515 302.826599,322.163727 
M303.715302,355.402374 
	C300.855530,361.148926 303.362335,366.753693 304.238342,372.379486 
	C304.525482,374.223572 305.580200,376.189301 307.707153,375.869873 
	C309.653839,375.577576 310.465912,373.556854 310.585052,371.656281 
	C310.875031,367.031067 312.051910,362.478668 311.672241,357.798218 
	C311.515015,355.859772 312.061890,353.644348 309.681763,352.636719 
	C307.205627,351.588318 305.594849,353.027802 303.715302,355.402374 
z"/>
<path fill="#000000" opacity="1.000000" stroke="none" 
	d="
M549.999878,473.329224 
	C516.508362,473.329071 483.516785,473.329224 450.525238,473.325439 
	C449.192841,473.325287 447.842773,473.418793 446.531555,473.241791 
	C443.459320,472.827057 441.832245,471.002594 441.695129,467.877350 
	C441.548828,464.542755 443.083313,462.468018 446.361359,461.837799 
	C447.492218,461.620392 448.685638,461.693481 449.850494,461.693359 
	C511.001373,461.686890 572.152222,461.686768 633.303101,461.686462 
	C633.802979,461.686462 634.302917,461.701599 634.802673,461.694092 
	C638.688843,461.635803 641.299438,463.033386 641.313721,467.394165 
	C641.327576,471.640350 638.966370,473.329010 634.978210,473.317047 
	C630.146179,473.302551 625.314087,473.329620 620.481995,473.329895 
	C597.154663,473.331177 573.827271,473.329468 549.999878,473.329224 
z"/>
<path fill="#000000" opacity="1.000000" stroke="none" 
	d="
M478.000061,511.695038 
	C515.155029,511.695496 551.809937,511.692749 588.464905,511.707520 
	C590.292542,511.708252 592.188232,511.581543 593.932434,512.006104 
	C596.819214,512.708801 598.441223,514.641113 598.334595,517.814575 
	C598.227356,521.004761 596.496887,522.724731 593.506714,523.207520 
	C592.040344,523.444336 590.516235,523.358765 589.018250,523.358948 
	C543.032959,523.364868 497.047699,523.365967 451.062439,523.360229 
	C444.221161,523.359375 441.217651,521.592102 441.188660,517.610718 
	C441.160461,513.737061 444.510681,511.712036 451.008392,511.703949 
	C459.838959,511.692993 468.669495,511.697510 478.000061,511.695038 
z"/>
<path fill="#000000" opacity="1.000000" stroke="none" 
	d="
M549.647400,562.037354 
	C552.162109,564.268066 553.021240,566.699341 551.685669,569.438721 
	C550.288818,572.303955 547.534363,572.349426 544.784485,572.347595 
	C513.135437,572.326782 481.486359,572.337524 449.837280,572.326111 
	C443.989624,572.323975 441.664764,570.737976 441.710938,566.655334 
	C441.774567,561.026306 446.139679,561.013123 449.914490,560.980774 
	C467.902222,560.826599 485.891693,560.862732 503.880524,560.854919 
	C515.873596,560.849670 527.866760,560.906067 539.859802,560.886536 
	C543.039307,560.881409 546.181885,561.063293 549.647400,562.037354 
z"/>
</svg>